<mxfile host="Electron" modified="2024-05-20T10:08:23.071Z" agent="Mozilla/5.0 (Windows NT 10.0; Win64; x64) AppleWebKit/537.36 (KHTML, like Gecko) draw.io/24.4.0 Chrome/120.0.6099.109 Electron/28.1.0 Safari/537.36" etag="93T2XCxPEAuwWA_mXjek" version="24.4.0" type="device">
  <diagram name="Page-1" id="cyOEwJxa-dC1btJNUEk5">
    <mxGraphModel dx="813" dy="696" grid="1" gridSize="10" guides="1" tooltips="1" connect="1" arrows="1" fold="1" page="1" pageScale="1" pageWidth="827" pageHeight="1169" math="1" shadow="0">
      <root>
        <mxCell id="0" />
        <mxCell id="1" parent="0" />
        <mxCell id="wr3q5a8KlkgdCGCBJAn7-1" value="" style="edgeStyle=orthogonalEdgeStyle;rounded=0;orthogonalLoop=1;jettySize=auto;html=1;curved=1;" edge="1" parent="1" source="wr3q5a8KlkgdCGCBJAn7-3" target="wr3q5a8KlkgdCGCBJAn7-6">
          <mxGeometry relative="1" as="geometry" />
        </mxCell>
        <mxCell id="wr3q5a8KlkgdCGCBJAn7-2" value="Ready!" style="edgeLabel;html=1;align=center;verticalAlign=middle;resizable=0;points=[];" vertex="1" connectable="0" parent="wr3q5a8KlkgdCGCBJAn7-1">
          <mxGeometry x="-0.1125" y="2" relative="1" as="geometry">
            <mxPoint as="offset" />
          </mxGeometry>
        </mxCell>
        <mxCell id="wr3q5a8KlkgdCGCBJAn7-3" value="Suspended" style="ellipse;whiteSpace=wrap;html=1;" vertex="1" parent="1">
          <mxGeometry x="114" y="250" width="120" height="80" as="geometry" />
        </mxCell>
        <mxCell id="wr3q5a8KlkgdCGCBJAn7-4" style="edgeStyle=orthogonalEdgeStyle;rounded=0;orthogonalLoop=1;jettySize=auto;html=1;exitX=1;exitY=0.5;exitDx=0;exitDy=0;entryX=0.5;entryY=0;entryDx=0;entryDy=0;curved=1;" edge="1" parent="1" source="wr3q5a8KlkgdCGCBJAn7-6" target="wr3q5a8KlkgdCGCBJAn7-9">
          <mxGeometry relative="1" as="geometry">
            <Array as="points">
              <mxPoint x="474" y="220" />
              <mxPoint x="654" y="220" />
            </Array>
          </mxGeometry>
        </mxCell>
        <mxCell id="wr3q5a8KlkgdCGCBJAn7-5" value="Resume[id]!" style="edgeLabel;html=1;align=center;verticalAlign=middle;resizable=0;points=[];" vertex="1" connectable="0" parent="wr3q5a8KlkgdCGCBJAn7-4">
          <mxGeometry x="-0.2625" relative="1" as="geometry">
            <mxPoint y="-1" as="offset" />
          </mxGeometry>
        </mxCell>
        <mxCell id="wr3q5a8KlkgdCGCBJAn7-6" value="Waiting" style="ellipse;whiteSpace=wrap;html=1;" vertex="1" parent="1">
          <mxGeometry x="354" y="190" width="120" height="80" as="geometry" />
        </mxCell>
        <mxCell id="wr3q5a8KlkgdCGCBJAn7-7" style="edgeStyle=orthogonalEdgeStyle;rounded=0;orthogonalLoop=1;jettySize=auto;html=1;entryX=1;entryY=0.5;entryDx=0;entryDy=0;exitX=0.5;exitY=1;exitDx=0;exitDy=0;curved=1;dashed=1;dashPattern=1 1;" edge="1" parent="1" source="wr3q5a8KlkgdCGCBJAn7-9" target="wr3q5a8KlkgdCGCBJAn7-11">
          <mxGeometry relative="1" as="geometry" />
        </mxCell>
        <mxCell id="wr3q5a8KlkgdCGCBJAn7-8" value="Preempt[id]!" style="edgeStyle=orthogonalEdgeStyle;rounded=0;orthogonalLoop=1;jettySize=auto;html=1;exitX=0;exitY=0.5;exitDx=0;exitDy=0;entryX=0.5;entryY=1;entryDx=0;entryDy=0;curved=1;" edge="1" parent="1" source="wr3q5a8KlkgdCGCBJAn7-9" target="wr3q5a8KlkgdCGCBJAn7-6">
          <mxGeometry relative="1" as="geometry">
            <Array as="points">
              <mxPoint x="594" y="310" />
              <mxPoint x="414" y="310" />
            </Array>
          </mxGeometry>
        </mxCell>
        <mxCell id="wr3q5a8KlkgdCGCBJAn7-9" value="Running" style="ellipse;whiteSpace=wrap;html=1;" vertex="1" parent="1">
          <mxGeometry x="594" y="270" width="120" height="80" as="geometry" />
        </mxCell>
        <mxCell id="wr3q5a8KlkgdCGCBJAn7-10" style="edgeStyle=orthogonalEdgeStyle;rounded=0;orthogonalLoop=1;jettySize=auto;html=1;exitX=0;exitY=0.5;exitDx=0;exitDy=0;entryX=0.5;entryY=1;entryDx=0;entryDy=0;curved=1;dashed=1;dashPattern=1 1;" edge="1" parent="1" source="wr3q5a8KlkgdCGCBJAn7-11" target="wr3q5a8KlkgdCGCBJAn7-3">
          <mxGeometry relative="1" as="geometry" />
        </mxCell>
        <mxCell id="wr3q5a8KlkgdCGCBJAn7-11" value="Sleeping" style="ellipse;whiteSpace=wrap;html=1;" vertex="1" parent="1">
          <mxGeometry x="354" y="350" width="120" height="80" as="geometry" />
        </mxCell>
        <mxCell id="wr3q5a8KlkgdCGCBJAn7-12" value="" style="curved=1;endArrow=classic;html=1;rounded=0;entryX=0;entryY=0.5;entryDx=0;entryDy=0;" edge="1" parent="1">
          <mxGeometry width="50" height="50" relative="1" as="geometry">
            <mxPoint x="289" y="260" as="sourcePoint" />
            <mxPoint x="339" y="95" as="targetPoint" />
            <Array as="points">
              <mxPoint x="239" y="170" />
            </Array>
          </mxGeometry>
        </mxCell>
        <mxCell id="wr3q5a8KlkgdCGCBJAn7-13" value="add(id)" style="edgeLabel;html=1;align=center;verticalAlign=middle;resizable=0;points=[];" vertex="1" connectable="0" parent="wr3q5a8KlkgdCGCBJAn7-12">
          <mxGeometry x="-0.4661" y="2" relative="1" as="geometry">
            <mxPoint as="offset" />
          </mxGeometry>
        </mxCell>
        <mxCell id="wr3q5a8KlkgdCGCBJAn7-14" value="remove()" style="endArrow=classic;html=1;rounded=0;entryX=1.008;entryY=0.379;entryDx=0;entryDy=0;curved=1;entryPerimeter=0;" edge="1" parent="1">
          <mxGeometry width="50" height="50" relative="1" as="geometry">
            <mxPoint x="549" y="210" as="sourcePoint" />
            <mxPoint x="459.96000000000004" y="81.69000000000005" as="targetPoint" />
            <Array as="points">
              <mxPoint x="539" y="95" />
            </Array>
          </mxGeometry>
        </mxCell>
        <mxCell id="wr3q5a8KlkgdCGCBJAn7-15" value="add(id)" style="endArrow=classic;html=1;rounded=0;entryX=1;entryY=0.5;entryDx=0;entryDy=0;curved=1;" edge="1" parent="1">
          <mxGeometry x="-0.1175" y="21" width="50" height="50" relative="1" as="geometry">
            <mxPoint x="489" y="300" as="sourcePoint" />
            <mxPoint x="459" y="95" as="targetPoint" />
            <Array as="points">
              <mxPoint x="539" y="170" />
            </Array>
            <mxPoint as="offset" />
          </mxGeometry>
        </mxCell>
        <mxCell id="wr3q5a8KlkgdCGCBJAn7-16" value="&lt;p style=&quot;font-size: 11px;&quot;&gt;&lt;font style=&quot;font-size: 11px;&quot; face=&quot;Helvetica&quot;&gt;Queue: list[pid_t]&lt;br&gt;int len()&lt;br&gt;pid_t&amp;nbsp; head()&lt;br&gt;void&amp;nbsp; &amp;nbsp;add(pid_t)&lt;br&gt;pid_t&amp;nbsp; remove()&lt;/font&gt;&lt;/p&gt;" style="rounded=0;whiteSpace=wrap;html=1;align=left;" vertex="1" parent="1">
          <mxGeometry x="339" y="70" width="121" height="80" as="geometry" />
        </mxCell>
        <mxCell id="wr3q5a8KlkgdCGCBJAn7-17" value="running: $$\emptyset \cup pid\_t$$" style="rounded=0;whiteSpace=wrap;html=1;" vertex="1" parent="1">
          <mxGeometry x="360" y="460" width="120" height="60" as="geometry" />
        </mxCell>
        <mxCell id="wr3q5a8KlkgdCGCBJAn7-19" value="" style="endArrow=classic;html=1;rounded=0;entryX=1;entryY=0.75;entryDx=0;entryDy=0;curved=1;" edge="1" parent="1" target="wr3q5a8KlkgdCGCBJAn7-17">
          <mxGeometry width="50" height="50" relative="1" as="geometry">
            <mxPoint x="610" y="380" as="sourcePoint" />
            <mxPoint x="440" y="400" as="targetPoint" />
            <Array as="points">
              <mxPoint x="570" y="470" />
            </Array>
          </mxGeometry>
        </mxCell>
        <mxCell id="wr3q5a8KlkgdCGCBJAn7-22" value="$$\emptyset$$" style="edgeLabel;html=1;align=center;verticalAlign=middle;resizable=0;points=[];" vertex="1" connectable="0" parent="wr3q5a8KlkgdCGCBJAn7-19">
          <mxGeometry x="-0.2467" y="-10" relative="1" as="geometry">
            <mxPoint as="offset" />
          </mxGeometry>
        </mxCell>
        <mxCell id="wr3q5a8KlkgdCGCBJAn7-20" value="" style="endArrow=classic;html=1;rounded=0;curved=1;entryX=1;entryY=0.25;entryDx=0;entryDy=0;" edge="1" parent="1" target="wr3q5a8KlkgdCGCBJAn7-17">
          <mxGeometry width="50" height="50" relative="1" as="geometry">
            <mxPoint x="500" y="320" as="sourcePoint" />
            <mxPoint x="480" y="490" as="targetPoint" />
            <Array as="points">
              <mxPoint x="550" y="450" />
            </Array>
          </mxGeometry>
        </mxCell>
        <mxCell id="wr3q5a8KlkgdCGCBJAn7-25" value="$$\emptyset$$" style="edgeLabel;html=1;align=center;verticalAlign=middle;resizable=0;points=[];" vertex="1" connectable="0" parent="wr3q5a8KlkgdCGCBJAn7-20">
          <mxGeometry x="-0.0423" y="-18" relative="1" as="geometry">
            <mxPoint x="-10" as="offset" />
          </mxGeometry>
        </mxCell>
        <mxCell id="wr3q5a8KlkgdCGCBJAn7-21" value="" style="endArrow=classic;html=1;rounded=0;curved=1;entryX=1;entryY=0.5;entryDx=0;entryDy=0;" edge="1" parent="1" target="wr3q5a8KlkgdCGCBJAn7-17">
          <mxGeometry width="50" height="50" relative="1" as="geometry">
            <mxPoint x="544" y="230" as="sourcePoint" />
            <mxPoint x="510" y="480" as="targetPoint" />
            <Array as="points">
              <mxPoint x="580" y="450" />
            </Array>
          </mxGeometry>
        </mxCell>
        <mxCell id="wr3q5a8KlkgdCGCBJAn7-24" value="id" style="edgeLabel;html=1;align=center;verticalAlign=middle;resizable=0;points=[];" vertex="1" connectable="0" parent="wr3q5a8KlkgdCGCBJAn7-21">
          <mxGeometry x="-0.139" y="-15" relative="1" as="geometry">
            <mxPoint as="offset" />
          </mxGeometry>
        </mxCell>
      </root>
    </mxGraphModel>
  </diagram>
</mxfile>
